<svg xmlns="http://www.w3.org/2000/svg" xmlns:xlink="http://www.w3.org/1999/xlink" width="2000" zoomAndPan="magnify" viewBox="0 0 1500 1499.999933" height="2000" preserveAspectRatio="xMidYMid meet" version="1.0"><defs><g/><clipPath id="c7e1405243"><path d="M 343.242188 639 L 459 639 L 459 662 L 343.242188 662 Z M 343.242188 639 " clip-rule="nonzero"/></clipPath></defs><path fill="#fbb040" d="M 983.753906 689.238281 C 983.769531 696.976562 983.390625 704.699219 982.625 712.398438 L 504.875 712.398438 C 504.101562 704.699219 503.722656 696.980469 503.746094 689.238281 C 503.746094 685.316406 503.84375 681.390625 504.039062 677.472656 C 504.230469 673.550781 504.523438 669.640625 504.910156 665.734375 C 505.292969 661.828125 505.777344 657.933594 506.355469 654.050781 C 506.929688 650.167969 507.605469 646.304688 508.371094 642.453125 C 509.136719 638.605469 510 634.777344 510.953125 630.96875 C 511.910156 627.164062 512.957031 623.382812 514.097656 619.628906 C 515.238281 615.871094 516.472656 612.144531 517.796875 608.453125 C 519.121094 604.757812 520.535156 601.097656 522.039062 597.46875 C 523.542969 593.84375 525.132812 590.257812 526.8125 586.710938 C 528.492188 583.164062 530.257812 579.660156 532.113281 576.199219 C 533.964844 572.738281 535.898438 569.324219 537.917969 565.957031 C 539.9375 562.589844 542.039062 559.277344 544.222656 556.015625 C 546.40625 552.75 548.664062 549.542969 551.003906 546.390625 C 553.34375 543.238281 555.761719 540.148438 558.253906 537.113281 C 560.746094 534.082031 563.308594 531.109375 565.949219 528.203125 C 568.585938 525.292969 571.292969 522.453125 574.070312 519.679688 C 576.847656 516.902344 579.691406 514.199219 582.601562 511.5625 C 585.511719 508.929688 588.484375 506.367188 591.519531 503.875 C 594.554688 501.386719 597.652344 498.972656 600.804688 496.636719 C 603.960938 494.296875 607.171875 492.039062 610.4375 489.859375 C 613.703125 487.679688 617.019531 485.582031 620.386719 483.5625 C 623.753906 481.546875 627.171875 479.613281 630.636719 477.761719 C 634.097656 475.914062 637.605469 474.148438 641.15625 472.472656 C 644.707031 470.792969 648.292969 469.203125 651.921875 467.703125 C 655.550781 466.199219 659.214844 464.789062 662.910156 463.46875 C 666.609375 462.144531 670.335938 460.914062 674.09375 459.777344 C 677.851562 458.636719 681.636719 457.589844 685.445312 456.636719 C 689.253906 455.683594 693.085938 454.824219 696.9375 454.058594 C 700.789062 453.292969 704.65625 452.621094 708.542969 452.046875 C 712.425781 451.46875 716.320312 450.992188 720.230469 450.605469 C 724.136719 450.222656 728.054688 449.933594 731.976562 449.738281 C 735.898438 449.546875 739.824219 449.453125 743.75 449.453125 C 747.675781 449.453125 751.601562 449.546875 755.523438 449.738281 C 759.445312 449.933594 763.359375 450.222656 767.269531 450.605469 C 771.175781 450.992188 775.074219 451.46875 778.957031 452.046875 C 782.84375 452.621094 786.710938 453.292969 790.5625 454.058594 C 794.414062 454.824219 798.242188 455.683594 802.054688 456.636719 C 805.863281 457.589844 809.644531 458.636719 813.402344 459.777344 C 817.164062 460.914062 820.890625 462.144531 824.585938 463.46875 C 828.285156 464.789062 831.949219 466.199219 835.574219 467.703125 C 839.203125 469.203125 842.792969 470.792969 846.34375 472.472656 C 849.894531 474.148438 853.402344 475.914062 856.863281 477.761719 C 860.328125 479.613281 863.742188 481.546875 867.113281 483.5625 C 870.480469 485.582031 873.796875 487.679688 877.0625 489.859375 C 880.328125 492.039062 883.539062 494.296875 886.691406 496.636719 C 889.847656 498.972656 892.941406 501.386719 895.980469 503.875 C 899.015625 506.367188 901.988281 508.929688 904.898438 511.5625 C 907.808594 514.199219 910.652344 516.902344 913.429688 519.679688 C 916.207031 522.453125 918.914062 525.292969 921.550781 528.203125 C 924.1875 531.109375 926.753906 534.082031 929.246094 537.113281 C 931.738281 540.148438 934.152344 543.238281 936.492188 546.390625 C 938.832031 549.542969 941.09375 552.75 943.277344 556.015625 C 945.460938 559.277344 947.558594 562.589844 949.582031 565.957031 C 951.601562 569.324219 953.535156 572.738281 955.386719 576.199219 C 957.238281 579.660156 959.003906 583.164062 960.683594 586.710938 C 962.363281 590.257812 963.957031 593.84375 965.460938 597.46875 C 966.964844 601.097656 968.378906 604.757812 969.703125 608.453125 C 971.027344 612.144531 972.257812 615.871094 973.398438 619.628906 C 974.539062 623.382812 975.589844 627.164062 976.542969 630.96875 C 977.5 634.777344 978.359375 638.605469 979.128906 642.453125 C 979.894531 646.304688 980.566406 650.167969 981.144531 654.050781 C 981.722656 657.933594 982.203125 661.828125 982.589844 665.734375 C 982.976562 669.640625 983.265625 673.550781 983.460938 677.472656 C 983.65625 681.390625 983.753906 685.316406 983.753906 689.238281 Z M 983.753906 689.238281 " fill-opacity="1" fill-rule="nonzero"/><path fill="#fbb040" d="M 1100.488281 550.957031 C 1105.222656 547.953125 1109.070312 545.238281 1111.746094 543.105469 C 1114.417969 540.976562 1115.851562 539.675781 1115.851562 539.675781 C 1115.851562 539.675781 1113.847656 539.589844 1110.484375 539.761719 C 1107.125 539.933594 1102.402344 540.363281 1096.839844 541.191406 C 1083.445312 543.421875 1070.398438 546.929688 1057.691406 551.710938 C 1044.957031 556.382812 1032.808594 562.257812 1021.246094 569.339844 C 1017.355469 571.769531 1013.605469 574.390625 1009.988281 577.203125 C 1007.328125 579.261719 1005.882812 580.648438 1005.882812 580.648438 C 1005.882812 580.648438 1007.871094 580.746094 1011.230469 580.5625 C 1014.59375 580.375 1019.34375 579.976562 1024.890625 579.132812 C 1038.285156 576.914062 1051.332031 573.402344 1064.027344 568.597656 C 1076.753906 563.902344 1088.910156 558.019531 1100.488281 550.957031 Z M 1100.488281 550.957031 " fill-opacity="1" fill-rule="nonzero"/><path fill="#fbb040" d="M 1139.578125 657.257812 C 1136.347656 656.386719 1131.699219 655.359375 1126.148438 654.398438 C 1112.71875 652.472656 1099.222656 651.8125 1085.667969 652.425781 C 1072.113281 653.039062 1058.734375 654.914062 1045.53125 658.046875 C 1040.097656 659.476562 1035.519531 660.90625 1032.414062 662.089844 C 1029.3125 663.277344 1027.453125 664.105469 1027.453125 664.105469 C 1027.453125 664.105469 1029.324219 664.808594 1032.558594 665.679688 C 1035.792969 666.550781 1040.46875 667.59375 1046.019531 668.539062 C 1059.449219 670.460938 1072.941406 671.109375 1086.496094 670.484375 C 1100.046875 669.859375 1113.421875 667.972656 1126.621094 664.820312 C 1131.066406 663.703125 1135.441406 662.363281 1139.75 660.804688 C 1142.914062 659.660156 1144.699219 658.789062 1144.699219 658.789062 C 1144.699219 658.789062 1142.828125 658.101562 1139.578125 657.257812 Z M 1139.578125 657.257812 " fill-opacity="1" fill-rule="nonzero"/><g clip-path="url(#c7e1405243)"><path fill="#fbb040" d="M 441.550781 650.855469 C 428.742188 646.371094 415.617188 643.199219 402.171875 641.332031 C 388.746094 639.339844 375.253906 638.667969 361.695312 639.316406 C 356.070312 639.675781 351.367188 640.246094 348.035156 640.746094 C 344.699219 641.246094 342.796875 641.792969 342.796875 641.792969 C 342.796875 641.792969 344.5 642.820312 347.519531 644.277344 C 350.535156 645.738281 354.914062 647.636719 360.191406 649.582031 C 373.019531 654.003906 386.148438 657.1875 399.574219 659.132812 C 413.003906 661.078125 426.496094 661.757812 440.050781 661.164062 C 445.65625 660.789062 450.378906 660.203125 453.695312 659.648438 C 457.015625 659.089844 458.945312 658.589844 458.945312 658.589844 C 458.945312 658.589844 457.242188 657.558594 454.210938 656.085938 C 451.179688 654.613281 446.832031 652.785156 441.550781 650.855469 Z M 441.550781 650.855469 " fill-opacity="1" fill-rule="nonzero"/></g><path fill="#fbb040" d="M 477.082031 576.042969 C 474.066406 572.59375 470.882812 569.304688 467.527344 566.179688 C 457.515625 557.003906 446.699219 548.902344 435.074219 541.878906 C 423.515625 534.769531 411.382812 528.84375 398.667969 524.105469 C 393.363281 522.234375 388.8125 520.890625 385.539062 520.105469 C 382.261719 519.316406 380.304688 519.003906 380.304688 519.003906 C 380.304688 519.003906 381.460938 520.632812 383.679688 523.148438 C 385.894531 525.664062 389.144531 529.140625 393.234375 533 C 403.253906 542.160156 414.066406 550.261719 425.675781 557.300781 C 437.21875 564.433594 449.355469 570.363281 462.078125 575.085938 C 466.386719 576.644531 470.765625 577.980469 475.210938 579.089844 C 478.46875 579.90625 480.445312 580.175781 480.445312 580.175781 C 480.445312 580.175781 479.300781 578.632812 477.082031 576.042969 Z M 477.082031 576.042969 " fill-opacity="1" fill-rule="nonzero"/><path fill="#419df9" d="M 373.28125 809.511719 C 373.28125 809.511719 559.03125 736.03125 671.671875 731.742188 C 785.144531 727.453125 971.253906 760.53125 1065.527344 730.3125 C 1159.804688 700.089844 1115.808594 723.835938 1115.808594 723.835938 C 1115.808594 723.835938 1004.394531 809.511719 922.417969 809.511719 C 840.445312 809.511719 763.316406 780.203125 635.039062 800.390625 C 483.761719 824.191406 478.613281 803.078125 373.28125 809.511719 Z M 373.28125 809.511719 " fill-opacity="1" fill-rule="nonzero"/><path fill="#419df9" d="M 931.789062 824.25 C 931.789062 824.25 1003.105469 821.019531 1046.347656 790.769531 L 1089.574219 760.53125 " fill-opacity="1" fill-rule="nonzero"/><path fill="#419df9" d="M 580.199219 816.703125 C 580.199219 816.703125 692.253906 791.496094 724.496094 801.648438 C 756.738281 811.796875 589.566406 810.226562 580.199219 816.703125 Z M 580.199219 816.703125 " fill-opacity="1" fill-rule="nonzero"/><path fill="#004a99" d="M 756.222656 429.824219 C 756.222656 429.824219 742.664062 426.59375 724.753906 423.964844 C 719.640625 421.347656 714.222656 419.765625 708.503906 419.21875 C 710.265625 419.832031 713.683594 421.304688 717.214844 422.949219 C 710.59375 422.105469 703.554688 421.421875 696.503906 421.035156 L 696.433594 421.035156 C 692.453125 419.574219 688.359375 418.621094 684.144531 418.175781 C 685.476562 418.675781 687.792969 419.605469 690.394531 420.761719 C 683.554688 420.507812 676.726562 420.722656 669.914062 421.40625 C 664.460938 420.324219 658.992188 420.222656 653.507812 421.105469 C 655.378906 421.261719 659 421.835938 662.816406 422.535156 C 656.167969 423.503906 650.066406 425.882812 644.523438 429.683594 C 644.523438 429.683594 709.078125 479.402344 691.957031 534.570312 C 684.722656 519.527344 676.617188 504.96875 667.640625 490.898438 C 667.8125 490.265625 667.890625 489.621094 667.863281 488.96875 C 667.839844 488.3125 667.71875 487.675781 667.496094 487.058594 C 667.273438 486.441406 666.964844 485.875 666.566406 485.351562 C 666.167969 484.832031 665.699219 484.382812 665.164062 484.007812 C 665.164062 484.007812 665.777344 486.207031 666.238281 488.710938 C 663.632812 484.808594 660.929688 480.847656 658.15625 477.046875 C 658.242188 476.492188 658.246094 475.941406 658.171875 475.386719 C 658.09375 474.835938 657.941406 474.304688 657.710938 473.796875 C 657.476562 473.289062 657.179688 472.824219 656.8125 472.402344 C 656.445312 471.984375 656.023438 471.625 655.550781 471.328125 C 655.550781 471.328125 655.980469 472.757812 656.367188 474.714844 C 653.507812 471.011719 650.730469 467.566406 647.785156 464.292969 C 647.984375 463.644531 648.078125 462.980469 648.066406 462.304688 C 648.058594 461.625 647.941406 460.964844 647.722656 460.324219 C 647.503906 459.679688 647.1875 459.089844 646.78125 458.546875 C 646.375 458.003906 645.894531 457.535156 645.339844 457.144531 C 645.867188 459.0625 646.289062 461 646.597656 462.964844 C 635.570312 450.898438 623.910156 442.878906 613.441406 445.121094 C 613.441406 445.121094 604.273438 457.832031 601.710938 497.773438 C 599.152344 537.71875 623.769531 696.601562 639.632812 712.46875 L 600.109375 712.46875 C 591.582031 649.917969 587.457031 587.078125 587.738281 523.949219 C 588.582031 505.921875 592.902344 460.191406 593.601562 451.96875 C 593.84375 449.496094 594.890625 437.503906 594.890625 437.503906 C 592.46875 438.316406 590.101562 439.257812 587.78125 440.328125 C 585.464844 441.398438 583.210938 442.585938 581.019531 443.898438 C 578.828125 445.210938 576.714844 446.632812 574.675781 448.171875 C 572.636719 449.710938 570.6875 451.351562 568.828125 453.097656 C 566.964844 454.847656 565.203125 456.6875 563.542969 458.625 C 561.878906 460.558594 560.324219 462.578125 558.875 464.683594 C 557.429688 466.785156 556.101562 468.960938 554.886719 471.207031 C 553.675781 473.449219 552.585938 475.753906 551.621094 478.117188 C 550.191406 474.113281 548.902344 471.070312 548.902344 471.070312 L 549.632812 479.648438 C 549.710938 480.421875 549.828125 481.1875 549.988281 481.949219 C 547.867188 486.984375 546.175781 492.160156 544.910156 497.472656 C 544.339844 499.832031 543.808594 502.078125 543.28125 504.207031 C 541.335938 498.488281 539.246094 493.398438 539.246094 493.398438 L 539.917969 501.976562 C 540.15625 504.601562 540.851562 507.101562 542.007812 509.46875 L 532.539062 548.351562 C 532.539062 548.351562 514.816406 493.757812 532.539062 464.148438 C 540.890625 450.269531 548.273438 426.125 587.007812 428.96875 C 581.714844 427.769531 576.359375 426.957031 570.949219 426.542969 C 565.535156 426.125 560.121094 426.101562 554.707031 426.476562 C 549.292969 426.851562 543.929688 427.617188 538.628906 428.773438 C 533.324219 429.929688 528.132812 431.46875 523.054688 433.386719 L 523.941406 429.195312 C 523.941406 429.195312 522.195312 431.371094 519.980469 434.414062 C 513.308594 436.644531 506.785156 439.253906 500.414062 442.234375 L 501.941406 435.085938 C 501.941406 435.085938 498.167969 439.746094 494.789062 444.964844 C 486.488281 449.15625 478.457031 453.816406 470.703125 458.945312 C 470.703125 458.945312 480.714844 411.382812 525.058594 406.125 C 547.707031 402.773438 570.351562 402.773438 593 406.125 C 577.5 394.949219 561.070312 385.367188 543.710938 377.375 L 549.261719 372.613281 C 549.261719 372.613281 544.625 373.742188 539.449219 375.472656 L 537.929688 374.828125 C 527.027344 370.234375 515.722656 367.078125 504.015625 365.351562 L 508.050781 361.890625 C 508.050781 361.890625 503.628906 362.949219 498.597656 364.578125 C 489.359375 363.429688 480.101562 363.191406 470.816406 363.863281 C 470.816406 363.863281 520.882812 329.625 553.652344 352.429688 C 571.761719 364.664062 588.261719 378.78125 603.144531 394.785156 C 601.523438 387.371094 599.269531 380.152344 596.386719 373.128906 C 593.503906 366.105469 590.035156 359.386719 585.976562 352.972656 C 588.035156 353.929688 589.992188 355.054688 591.851562 356.351562 C 593.710938 357.648438 595.441406 359.097656 597.050781 360.695312 C 598.65625 362.296875 600.113281 364.019531 601.421875 365.875 C 602.726562 367.726562 603.863281 369.675781 604.832031 371.726562 C 604.832031 371.882812 604.945312 372.070312 604.972656 372.257812 C 607.101562 378.507812 607.789062 384.910156 607.035156 391.46875 C 607.035156 391.46875 638.300781 337.375 694.472656 346.265625 L 727.441406 355.617188 C 727.441406 355.617188 714.984375 358.804688 698.964844 364.59375 C 692.949219 364.144531 687.089844 364.902344 681.382812 366.867188 C 683.617188 366.679688 688.535156 366.652344 693.214844 366.738281 C 688.035156 368.652344 682.6875 370.871094 677.308594 373.257812 C 671.535156 372.992188 665.914062 373.792969 660.445312 375.660156 C 662.734375 375.472656 667.710938 375.429688 672.472656 375.515625 C 668.398438 377.417969 664.40625 379.460938 660.601562 381.589844 C 655.859375 381.796875 651.242188 382.648438 646.742188 384.152344 C 648.6875 383.964844 652.5625 383.921875 656.609375 383.964844 C 649.757812 387.910156 643.613281 392.753906 638.1875 398.503906 L 629.605469 407.082031 C 631.894531 406.308594 704.214844 385.324219 756.222656 429.824219 Z M 756.222656 429.824219 " fill-opacity="1" fill-rule="nonzero"/><path fill="#004a99" d="M 788.679688 462.433594 C 788.679688 462.433594 800.664062 459.574219 816.554688 457.246094 C 821.078125 454.929688 825.871094 453.527344 830.929688 453.042969 C 829.386719 453.585938 826.355469 454.902344 823.222656 456.332031 C 829.085938 455.601562 835.292969 454.988281 841.542969 454.65625 L 841.617188 454.65625 C 845.128906 453.359375 848.746094 452.523438 852.472656 452.140625 C 851.300781 452.570312 849.253906 453.414062 846.953125 454.429688 C 853 454.199219 859.035156 454.382812 865.058594 454.988281 C 869.878906 454.039062 874.714844 453.953125 879.566406 454.730469 C 877.917969 454.871094 874.714844 455.371094 871.324219 455.945312 C 877.203125 456.792969 882.597656 458.886719 887.503906 462.234375 C 887.503906 462.234375 830.417969 506.207031 845.5625 555 C 851.945312 541.707031 859.097656 528.839844 867.019531 516.402344 C 866.863281 515.84375 866.792969 515.277344 866.8125 514.695312 C 866.832031 514.117188 866.9375 513.554688 867.132812 513.007812 C 867.328125 512.464844 867.601562 511.960938 867.953125 511.5 C 868.304688 511.039062 868.71875 510.644531 869.195312 510.3125 C 869.195312 510.3125 868.664062 512.257812 868.25 514.472656 C 870.554688 511.011719 872.925781 507.523438 875.402344 504.136719 C 875.328125 503.648438 875.320312 503.160156 875.386719 502.671875 C 875.453125 502.183594 875.589844 501.714844 875.792969 501.265625 C 875.996094 500.816406 876.257812 500.40625 876.582031 500.03125 C 876.90625 499.660156 877.273438 499.339844 877.691406 499.074219 C 877.691406 499.074219 877.304688 500.375 876.976562 502.0625 C 879.4375 498.789062 881.953125 495.703125 884.511719 492.84375 C 884.34375 492.269531 884.265625 491.6875 884.277344 491.089844 C 884.289062 490.496094 884.390625 489.914062 884.585938 489.351562 C 884.777344 488.785156 885.054688 488.265625 885.410156 487.789062 C 885.765625 487.308594 886.1875 486.898438 886.671875 486.550781 C 886.207031 488.246094 885.828125 489.964844 885.542969 491.699219 C 895.3125 481.019531 905.570312 473.929688 914.878906 475.972656 C 918.492188 483.191406 921.179688 490.742188 922.933594 498.625 C 924.6875 506.503906 925.460938 514.480469 925.25 522.550781 C 927.511719 557.875 905.742188 698.386719 891.707031 712.414062 L 926.652344 712.414062 C 934.191406 657.09375 937.84375 601.523438 937.609375 545.695312 C 936.851562 529.753906 933.019531 489.3125 932.429688 482.035156 C 932.21875 479.847656 931.273438 469.238281 931.273438 469.238281 C 933.414062 469.960938 935.507812 470.792969 937.558594 471.738281 C 939.609375 472.683594 941.605469 473.734375 943.542969 474.894531 C 945.480469 476.054688 947.347656 477.3125 949.152344 478.671875 C 950.953125 480.03125 952.679688 481.484375 954.324219 483.027344 C 955.972656 484.574219 957.53125 486.203125 959.003906 487.914062 C 960.472656 489.625 961.847656 491.410156 963.128906 493.269531 C 964.410156 495.128906 965.585938 497.054688 966.660156 499.039062 C 967.730469 501.023438 968.695312 503.0625 969.550781 505.152344 C 970.835938 501.621094 971.9375 498.933594 971.9375 498.933594 L 971.296875 506.464844 C 971.234375 507.15625 971.132812 507.84375 970.996094 508.523438 C 972.863281 512.984375 974.359375 517.5625 975.484375 522.261719 C 975.972656 524.363281 976.445312 526.324219 976.917969 528.210938 C 978.648438 523.207031 980.492188 518.660156 980.492188 518.660156 L 979.890625 526.238281 C 979.683594 528.558594 979.066406 530.765625 978.03125 532.855469 L 986.429688 567.167969 C 986.429688 567.167969 1002.164062 518.890625 986.429688 492.726562 C 979.0625 480.449219 972.566406 459.074219 938.253906 461.589844 C 942.9375 460.53125 947.671875 459.8125 952.457031 459.445312 C 957.246094 459.074219 962.035156 459.054688 966.824219 459.386719 C 971.617188 459.71875 976.359375 460.394531 981.050781 461.417969 C 985.742188 462.441406 990.332031 463.800781 994.824219 465.496094 L 994.039062 461.804688 C 994.039062 461.804688 995.597656 463.722656 997.558594 466.410156 C 1003.449219 468.390625 1009.214844 470.699219 1014.851562 473.328125 L 1013.503906 467.007812 C 1013.503906 467.007812 1016.839844 471.140625 1019.855469 475.757812 C 1027.203125 479.457031 1034.308594 483.574219 1041.167969 488.109375 C 1041.167969 488.109375 1032.371094 446.066406 993.207031 441.390625 C 973.183594 438.417969 953.15625 438.417969 933.132812 441.390625 C 946.84375 431.511719 961.378906 423.039062 976.730469 415.972656 L 971.824219 411.757812 C 971.824219 411.757812 975.914062 412.769531 980.492188 414.242188 C 980.9375 414.070312 981.394531 413.871094 981.835938 413.671875 C 991.496094 409.613281 1001.507812 406.820312 1011.875 405.292969 L 1008.3125 402.234375 C 1008.3125 402.234375 1012.21875 403.179688 1016.667969 404.621094 C 1024.832031 403.601562 1033.019531 403.394531 1041.226562 403.992188 C 1041.226562 403.992188 996.882812 373.699219 967.976562 393.886719 C 951.957031 404.703125 937.367188 417.1875 924.207031 431.339844 C 927.074219 418.132812 932.113281 405.808594 939.324219 394.371094 C 937.507812 395.21875 935.78125 396.214844 934.136719 397.363281 C 932.492188 398.511719 930.960938 399.792969 929.542969 401.207031 C 928.121094 402.621094 926.832031 404.144531 925.679688 405.78125 C 924.523438 407.417969 923.515625 409.144531 922.660156 410.957031 C 922.660156 411.082031 922.5625 411.242188 922.535156 411.414062 C 920.65625 416.941406 920.046875 422.609375 920.703125 428.410156 C 920.703125 428.410156 893.054688 380.5625 843.390625 388.382812 L 814.125 396.789062 C 814.125 396.789062 825.136719 399.648438 839.3125 404.722656 C 844.632812 404.335938 849.816406 405.007812 854.863281 406.738281 C 852.875 406.582031 848.539062 406.550781 844.390625 406.625 C 848.96875 408.324219 853.71875 410.285156 858.464844 412.34375 C 863.574219 412.109375 868.546875 412.8125 873.386719 414.457031 C 871.355469 414.300781 866.964844 414.257812 862.742188 414.328125 C 866.347656 416.015625 869.894531 417.816406 873.242188 419.71875 C 877.429688 419.886719 881.511719 420.640625 885.488281 421.976562 C 883.769531 421.804688 880.335938 421.777344 876.773438 421.804688 C 882.824219 425.277344 888.257812 429.539062 893.066406 434.585938 L 900.621094 442.105469 C 898.632812 441.632812 834.664062 423.0625 788.679688 462.433594 Z M 788.679688 462.433594 " fill-opacity="1" fill-rule="nonzero"/><g fill="#004a99" fill-opacity="1"><g transform="translate(166.613016, 971.94388)"><g><path d="M 1.640625 0 L 52.125 -127.125 L 80.453125 -127.125 L 130.9375 0 L 100.0625 0 L 91.53125 -21.96875 L 41.046875 -21.96875 L 32.515625 0 Z M 48.484375 -44.671875 L 84.265625 -44.671875 L 66.28125 -91.171875 Z M 48.484375 -44.671875 "/></g></g></g><g fill="#004a99" fill-opacity="1"><g transform="translate(313.160273, 971.94388)"><g><path d="M 15.25 0 L 15.25 -127.125 L 39.765625 -127.125 L 85 -61.203125 L 130.03125 -127.125 L 154.375 -127.125 L 154.375 0 L 125.671875 0 L 125.671875 -76.453125 L 94.796875 -31.421875 L 74.828125 -31.421875 L 43.953125 -76.640625 L 43.953125 0 Z M 15.25 0 "/></g></g></g><g fill="#004a99" fill-opacity="1"><g transform="translate(496.752653, 971.94388)"><g><path d="M 1.640625 0 L 52.125 -127.125 L 80.453125 -127.125 L 130.9375 0 L 100.0625 0 L 91.53125 -21.96875 L 41.046875 -21.96875 L 32.515625 0 Z M 48.484375 -44.671875 L 84.265625 -44.671875 L 66.28125 -91.171875 Z M 48.484375 -44.671875 "/></g></g></g><g fill="#004a99" fill-opacity="1"><g transform="translate(643.29991, 971.94388)"><g><path d="M 15.25 0 L 15.25 -127.125 L 69.5625 -127.125 C 79.238281 -127.125 87.648438 -125.367188 94.796875 -121.859375 C 101.941406 -118.347656 107.453125 -113.320312 111.328125 -106.78125 C 115.203125 -100.25 117.140625 -92.441406 117.140625 -83.359375 C 117.140625 -74.035156 115.019531 -66.015625 110.78125 -59.296875 C 106.539062 -52.578125 100.609375 -47.519531 92.984375 -44.125 L 119.3125 0 L 85.90625 0 L 63.203125 -39.59375 L 44.125 -39.59375 L 44.125 0 Z M 43.765625 -63.921875 L 65.75 -63.921875 C 72.882812 -63.921875 78.359375 -65.585938 82.171875 -68.921875 C 85.992188 -72.253906 87.90625 -77.003906 87.90625 -83.171875 C 87.90625 -89.347656 85.992188 -94.097656 82.171875 -97.421875 C 78.359375 -100.753906 72.882812 -102.421875 65.75 -102.421875 L 43.765625 -102.421875 Z M 43.765625 -63.921875 "/></g></g></g><g fill="#004a99" fill-opacity="1"><g transform="translate(783.128068, 971.94388)"><g><path d="M 1.640625 0 L 52.125 -127.125 L 80.453125 -127.125 L 130.9375 0 L 100.0625 0 L 91.53125 -21.96875 L 41.046875 -21.96875 L 32.515625 0 Z M 48.484375 -44.671875 L 84.265625 -44.671875 L 66.28125 -91.171875 Z M 48.484375 -44.671875 "/></g></g></g><g fill="#004a99" fill-opacity="1"><g transform="translate(929.675325, 971.94388)"><g><path d="M 15.25 0 L 15.25 -127.125 L 39.765625 -127.125 L 95.890625 -49.765625 L 95.890625 -127.125 L 124.578125 -127.125 L 124.578125 0 L 100.0625 0 L 43.953125 -77.90625 L 43.953125 0 Z M 15.25 0 "/></g></g></g><g fill="#004a99" fill-opacity="1"><g transform="translate(1083.486287, 971.94388)"><g><path d="M 45.765625 0 L 45.765625 -100.0625 L 5.453125 -100.0625 L 5.453125 -127.125 L 114.953125 -127.125 L 114.953125 -100.0625 L 74.640625 -100.0625 L 74.640625 0 Z M 45.765625 0 "/></g></g></g><g fill="#004a99" fill-opacity="1"><g transform="translate(1204.064798, 971.94388)"><g><path d="M 1.640625 0 L 52.125 -127.125 L 80.453125 -127.125 L 130.9375 0 L 100.0625 0 L 91.53125 -21.96875 L 41.046875 -21.96875 L 32.515625 0 Z M 48.484375 -44.671875 L 84.265625 -44.671875 L 66.28125 -91.171875 Z M 48.484375 -44.671875 "/></g></g></g><g fill="#004a99" fill-opacity="1"><g transform="translate(326.735938, 1085.386879)"><g><path d="M 1.21875 0 L 21.796875 -50.015625 L 27.65625 -50.015625 L 48.234375 0 L 41.578125 0 L 36.875 -11.359375 L 12.5 -11.359375 L 7.9375 0 Z M 14.9375 -17.21875 L 34.515625 -17.21875 L 24.71875 -41.234375 Z M 14.9375 -17.21875 "/></g></g></g><g fill="#004a99" fill-opacity="1"><g transform="translate(383.253495, 1085.386879)"><g><path d="M 29.578125 0.921875 C 25.910156 0.921875 22.53125 0.277344 19.4375 -1 C 16.34375 -2.28125 13.648438 -4.078125 11.359375 -6.390625 C 9.078125 -8.703125 7.300781 -11.441406 6.03125 -14.609375 C 4.769531 -17.773438 4.140625 -21.242188 4.140625 -25.015625 C 4.140625 -28.773438 4.757812 -32.222656 6 -35.359375 C 7.238281 -38.503906 9 -41.242188 11.28125 -43.578125 C 13.570312 -45.921875 16.253906 -47.734375 19.328125 -49.015625 C 22.398438 -50.304688 25.769531 -50.953125 29.4375 -50.953125 C 33.25 -50.953125 36.773438 -50.257812 40.015625 -48.875 C 43.253906 -47.488281 46.050781 -45.554688 48.40625 -43.078125 C 50.769531 -40.609375 52.472656 -37.726562 53.515625 -34.4375 L 46.65625 -34.4375 C 45.082031 -37.675781 42.816406 -40.1875 39.859375 -41.96875 C 36.910156 -43.757812 33.507812 -44.65625 29.65625 -44.65625 C 25.9375 -44.65625 22.632812 -43.820312 19.75 -42.15625 C 16.875 -40.488281 14.625 -38.175781 13 -35.21875 C 11.382812 -32.269531 10.578125 -28.867188 10.578125 -25.015625 C 10.578125 -21.148438 11.394531 -17.738281 13.03125 -14.78125 C 14.675781 -11.832031 16.941406 -9.523438 19.828125 -7.859375 C 22.710938 -6.191406 26.007812 -5.359375 29.71875 -5.359375 C 33.101562 -5.359375 36.101562 -6.023438 38.71875 -7.359375 C 41.34375 -8.691406 43.476562 -10.535156 45.125 -12.890625 C 46.769531 -15.253906 47.804688 -18.007812 48.234375 -21.15625 L 27.859375 -21.15625 L 27.859375 -27.15625 L 55.015625 -27.15625 C 55.109375 -21.675781 54.09375 -16.828125 51.96875 -12.609375 C 49.851562 -8.390625 46.878906 -5.078125 43.046875 -2.671875 C 39.210938 -0.273438 34.722656 0.921875 29.578125 0.921875 Z M 29.578125 0.921875 "/></g></g></g><g fill="#004a99" fill-opacity="1"><g transform="translate(451.346145, 1085.386879)"><g><path d="M 7.28125 0 L 7.28125 -50.015625 L 37.65625 -50.015625 L 37.65625 -44.15625 L 13.578125 -44.15625 L 13.578125 -28.359375 L 35.875 -28.359375 L 35.875 -22.578125 L 13.578125 -22.578125 L 13.578125 -5.859375 L 38.4375 -5.859375 L 38.4375 0 Z M 7.28125 0 "/></g></g></g><g fill="#004a99" fill-opacity="1"><g transform="translate(503.577066, 1085.386879)"><g><path d="M 7.28125 0 L 7.28125 -50.015625 L 13.21875 -50.015625 L 40.875 -10.859375 L 40.875 -50.015625 L 47.015625 -50.015625 L 47.015625 0 L 41.15625 0 L 13.5 -39.15625 L 13.5 0 Z M 7.28125 0 "/></g></g></g><g fill="#004a99" fill-opacity="1"><g transform="translate(567.025498, 1085.386879)"><g><path d="M 29.4375 0.921875 C 25.769531 0.921875 22.382812 0.277344 19.28125 -1 C 16.1875 -2.28125 13.507812 -4.078125 11.25 -6.390625 C 8.988281 -8.703125 7.238281 -11.441406 6 -14.609375 C 4.757812 -17.773438 4.140625 -21.242188 4.140625 -25.015625 C 4.140625 -28.773438 4.757812 -32.238281 6 -35.40625 C 7.238281 -38.570312 8.988281 -41.3125 11.25 -43.625 C 13.507812 -45.9375 16.1875 -47.734375 19.28125 -49.015625 C 22.382812 -50.304688 25.769531 -50.953125 29.4375 -50.953125 C 33.394531 -50.953125 37.023438 -50.222656 40.328125 -48.765625 C 43.640625 -47.316406 46.472656 -45.242188 48.828125 -42.546875 C 51.191406 -39.859375 52.921875 -36.679688 54.015625 -33.015625 L 47.296875 -33.015625 C 46.015625 -36.628906 43.789062 -39.472656 40.625 -41.546875 C 37.457031 -43.617188 33.800781 -44.65625 29.65625 -44.65625 C 25.9375 -44.65625 22.644531 -43.820312 19.78125 -42.15625 C 16.925781 -40.488281 14.675781 -38.175781 13.03125 -35.21875 C 11.394531 -32.269531 10.578125 -28.867188 10.578125 -25.015625 C 10.578125 -21.148438 11.394531 -17.738281 13.03125 -14.78125 C 14.675781 -11.832031 16.925781 -9.523438 19.78125 -7.859375 C 22.644531 -6.191406 25.9375 -5.359375 29.65625 -5.359375 C 33.894531 -5.359375 37.65625 -6.453125 40.9375 -8.640625 C 44.226562 -10.835938 46.515625 -13.816406 47.796875 -17.578125 L 54.453125 -17.578125 C 53.453125 -13.859375 51.75 -10.617188 49.34375 -7.859375 C 46.9375 -5.097656 44.03125 -2.941406 40.625 -1.390625 C 37.21875 0.148438 33.488281 0.921875 29.4375 0.921875 Z M 29.4375 0.921875 "/></g></g></g><g fill="#004a99" fill-opacity="1"><g transform="translate(634.475115, 1085.386879)"><g><path d="M 7.28125 0 L 7.28125 -50.015625 L 13.578125 -50.015625 L 13.578125 0 Z M 7.28125 0 "/></g></g></g><g fill="#004a99" fill-opacity="1"><g transform="translate(664.485344, 1085.386879)"><g><path d="M 1.21875 0 L 21.796875 -50.015625 L 27.65625 -50.015625 L 48.234375 0 L 41.578125 0 L 36.875 -11.359375 L 12.5 -11.359375 L 7.9375 0 Z M 14.9375 -17.21875 L 34.515625 -17.21875 L 24.71875 -41.234375 Z M 14.9375 -17.21875 "/></g></g></g><g fill="#004a99" fill-opacity="1"><g transform="translate(721.5031, 1085.386879)"><g/></g></g><g fill="#004a99" fill-opacity="1"><g transform="translate(748.369568, 1085.386879)"><g><path d="M 7.28125 0 L 7.28125 -50.015625 L 24.578125 -50.015625 C 29.722656 -50.015625 34.210938 -48.953125 38.046875 -46.828125 C 41.878906 -44.710938 44.867188 -41.785156 47.015625 -38.046875 C 49.160156 -34.304688 50.234375 -29.960938 50.234375 -25.015625 C 50.234375 -20.109375 49.160156 -15.769531 47.015625 -12 C 44.867188 -8.238281 41.878906 -5.296875 38.046875 -3.171875 C 34.210938 -1.054688 29.722656 0 24.578125 0 Z M 13.578125 -6 L 24.578125 -6 C 28.390625 -6 31.734375 -6.796875 34.609375 -8.390625 C 37.492188 -9.992188 39.742188 -12.222656 41.359375 -15.078125 C 42.984375 -17.929688 43.796875 -21.242188 43.796875 -25.015625 C 43.796875 -28.816406 42.972656 -32.132812 41.328125 -34.96875 C 39.691406 -37.8125 37.421875 -40.03125 34.515625 -41.625 C 31.609375 -43.21875 28.203125 -44.015625 24.296875 -44.015625 L 13.578125 -44.015625 Z M 13.578125 -6 "/></g></g></g><g fill="#004a99" fill-opacity="1"><g transform="translate(811.889444, 1085.386879)"><g><path d="M 7.28125 0 L 7.28125 -50.015625 L 37.65625 -50.015625 L 37.65625 -44.15625 L 13.578125 -44.15625 L 13.578125 -28.359375 L 35.875 -28.359375 L 35.875 -22.578125 L 13.578125 -22.578125 L 13.578125 -5.859375 L 38.4375 -5.859375 L 38.4375 0 Z M 7.28125 0 "/></g></g></g><g fill="#004a99" fill-opacity="1"><g transform="translate(864.120366, 1085.386879)"><g/></g></g><g fill="#004a99" fill-opacity="1"><g transform="translate(889.414691, 1085.386879)"><g><path d="M 21.15625 0 L 1.21875 -50.015625 L 7.9375 -50.015625 L 16.21875 -28.9375 L 24.078125 -9.078125 L 31.875 -28.9375 L 40.234375 -50.015625 L 46.875 -50.015625 L 27.015625 0 Z M 21.15625 0 "/></g></g></g><g fill="#004a99" fill-opacity="1"><g transform="translate(946.647046, 1085.386879)"><g><path d="M 7.28125 0 L 7.28125 -50.015625 L 13.578125 -50.015625 L 13.578125 0 Z M 7.28125 0 "/></g></g></g><g fill="#004a99" fill-opacity="1"><g transform="translate(976.657298, 1085.386879)"><g><path d="M 1.21875 0 L 21.796875 -50.015625 L 27.65625 -50.015625 L 48.234375 0 L 41.578125 0 L 36.875 -11.359375 L 12.5 -11.359375 L 7.9375 0 Z M 14.9375 -17.21875 L 34.515625 -17.21875 L 24.71875 -41.234375 Z M 14.9375 -17.21875 "/></g></g></g><g fill="#004a99" fill-opacity="1"><g transform="translate(1035.247197, 1085.386879)"><g><path d="M 3.140625 0 L 3.140625 -6 L 10.296875 -6 C 14.296875 -6 17.054688 -6.972656 18.578125 -8.921875 C 20.097656 -10.878906 20.859375 -13.523438 20.859375 -16.859375 L 20.859375 -50.015625 L 27.15625 -50.015625 L 27.15625 -16.5 C 27.15625 -11.550781 25.785156 -7.5625 23.046875 -4.53125 C 20.304688 -1.507812 16.054688 0 10.296875 0 Z M 3.140625 0 "/></g></g></g><g fill="#004a99" fill-opacity="1"><g transform="translate(1078.689882, 1085.386879)"><g><path d="M 7.28125 0 L 7.28125 -50.015625 L 37.65625 -50.015625 L 37.65625 -44.15625 L 13.578125 -44.15625 L 13.578125 -28.359375 L 35.875 -28.359375 L 35.875 -22.578125 L 13.578125 -22.578125 L 13.578125 -5.859375 L 38.4375 -5.859375 L 38.4375 0 Z M 7.28125 0 "/></g></g></g><g fill="#004a99" fill-opacity="1"><g transform="translate(1130.277645, 1085.386879)"><g><path d="M 23.9375 0.921875 C 19.9375 0.921875 16.46875 0.242188 13.53125 -1.109375 C 10.601562 -2.460938 8.34375 -4.363281 6.75 -6.8125 C 5.15625 -9.269531 4.332031 -12.117188 4.28125 -15.359375 L 10.578125 -15.359375 C 10.671875 -12.171875 11.941406 -9.660156 14.390625 -7.828125 C 16.847656 -5.992188 20.03125 -5.078125 23.9375 -5.078125 C 27.457031 -5.078125 30.253906 -5.765625 32.328125 -7.140625 C 34.398438 -8.523438 35.4375 -10.457031 35.4375 -12.9375 C 35.4375 -15.269531 34.4375 -17.140625 32.4375 -18.546875 C 30.4375 -19.953125 27.175781 -21.175781 22.65625 -22.21875 C 16.507812 -23.695312 12.003906 -25.59375 9.140625 -27.90625 C 6.285156 -30.21875 4.859375 -33.300781 4.859375 -37.15625 C 4.859375 -41.394531 6.460938 -44.753906 9.671875 -47.234375 C 12.890625 -49.710938 17.238281 -50.953125 22.71875 -50.953125 C 28.34375 -50.953125 32.785156 -49.546875 36.046875 -46.734375 C 39.304688 -43.921875 40.960938 -40.082031 41.015625 -35.21875 L 34.796875 -35.21875 C 34.742188 -38.226562 33.632812 -40.597656 31.46875 -42.328125 C 29.300781 -44.066406 26.382812 -44.9375 22.71875 -44.9375 C 19.144531 -44.9375 16.347656 -44.234375 14.328125 -42.828125 C 12.304688 -41.429688 11.296875 -39.539062 11.296875 -37.15625 C 11.296875 -35.101562 12.234375 -33.375 14.109375 -31.96875 C 15.992188 -30.570312 19.363281 -29.273438 24.21875 -28.078125 C 30.601562 -26.503906 35.148438 -24.539062 37.859375 -22.1875 C 40.578125 -19.832031 41.9375 -16.816406 41.9375 -13.140625 C 41.9375 -8.804688 40.304688 -5.378906 37.046875 -2.859375 C 33.785156 -0.335938 29.414062 0.921875 23.9375 0.921875 Z M 23.9375 0.921875 "/></g></g></g></svg>